<?xml version="1.0" encoding="utf-8"?>
<svg version="1.1" xmlns="http://www.w3.org/2000/svg" xmlns:xlink="http://www.w3.org/1999/xlink" x="0px" y="0px" viewBox="0 0 24 28" style="enable-background:new 0 0 24 28;background-color:#00897b;" xml:space="preserve">
  <style type="text/css">
    .f-text{fill:#FFFFFF;}
  </style>
  <g id="title">
    <title>arrow-circle-down</title>
    <path class="f-text" d="M20.062 14.016c0-0.266-0.094-0.516-0.281-0.703l-1.422-1.422c-0.187-0.187-0.438-0.281-0.703-0.281s-0.516 0.094-0.703 0.281l-2.953 2.953v-7.844c0-0.547-0.453-1-1-1h-2c-0.547 0-1 0.453-1 1v7.844l-2.953-2.953c-0.187-0.187-0.438-0.297-0.703-0.297s-0.516 0.109-0.703 0.297l-1.422 1.422c-0.187 0.187-0.281 0.438-0.281 0.703s0.094 0.516 0.281 0.703l7.078 7.078c0.187 0.187 0.438 0.281 0.703 0.281s0.516-0.094 0.703-0.281l7.078-7.078c0.187-0.187 0.281-0.438 0.281-0.703zM24 14c0 6.625-5.375 12-12 12s-12-5.375-12-12 5.375-12 12-12 12 5.375 12 12z"></path>
  </g>
</svg>